<svg xmlns="http://www.w3.org/2000/svg" width="96" height="96" viewBox="0 0 96 96">
  <defs>
    <linearGradient id="bgGradient" x1="0%" y1="0%" x2="100%" y2="100%">
      <stop offset="0%" style="stop-color:#0A1628" />
      <stop offset="100%" style="stop-color:#FFD700" />
    </linearGradient>
  </defs>
  <rect width="96" height="96" rx="20" fill="url(#bgGradient)"/>
  <g transform="translate(20, 20)">
    <!-- AI Brain icon -->
    <circle cx="28" cy="28" r="24" fill="none" stroke="white" stroke-width="2"/>
    <!-- Neural network nodes -->
    <circle cx="28" cy="16" r="2" fill="white"/>
    <circle cx="16" cy="28" r="2" fill="white"/>
    <circle cx="40" cy="28" r="2" fill="white"/>
    <circle cx="28" cy="40" r="2" fill="white"/>
    <circle cx="22" cy="22" r="1.5" fill="white"/>
    <circle cx="34" cy="22" r="1.5" fill="white"/>
    <circle cx="22" cy="34" r="1.5" fill="white"/>
    <circle cx="34" cy="34" r="1.5" fill="white"/>
    <!-- Connections -->
    <line x1="28" y1="16" x2="22" y2="22" stroke="white" stroke-width="1"/>
    <line x1="28" y1="16" x2="34" y2="22" stroke="white" stroke-width="1"/>
    <line x1="16" y1="28" x2="22" y2="22" stroke="white" stroke-width="1"/>
    <line x1="16" y1="28" x2="22" y2="34" stroke="white" stroke-width="1"/>
    <line x1="40" y1="28" x2="34" y2="22" stroke="white" stroke-width="1"/>
    <line x1="40" y1="28" x2="34" y2="34" stroke="white" stroke-width="1"/>
    <line x1="28" y1="40" x2="22" y2="34" stroke="white" stroke-width="1"/>
    <line x1="28" y1="40" x2="34" y2="34" stroke="white" stroke-width="1"/>
  </g>
  <text x="48" y="84" text-anchor="middle" fill="white" font-family="Inter, sans-serif" font-size="8" font-weight="600">SERVIZI AI</text>
</svg>